<svg version="1.2" xmlns="http://www.w3.org/2000/svg" viewBox="0 0 206 105" width="206" height="105"><defs><clipPath clipPathUnits="userSpaceOnUse" id="cp1"><path d="m66.69 0.01h46.31v46.99h-46.31z"/></clipPath><clipPath clipPathUnits="userSpaceOnUse" id="cp2"><path d="m91 43h10v62.01h-10z"/></clipPath><clipPath clipPathUnits="userSpaceOnUse" id="cp3"><path d="m110 18h11.44v17h-11.44z"/></clipPath></defs><style>.a{fill:#0097b2}.b{fill:#fff}</style><g clip-path="url(#cp1)"><path fill-rule="evenodd" class="a" d="m112.2 11.2c0 3.5-1.6 6.6-4.1 8.6h2.5v19.3h-28.2l-0.5 3.3-7.7 1.7-1.4 1.3-5.7 1.1-0.4-3.2 5.7-1.1 1.5 0.8 7.1-1.3 0.4-2.6h-3v-11.6h-1.8l-0.5 0.8-0.9 0.3-2.5-5.1h1.6l2.2 0.8v0.1h1.9v-1.1c-4.1-1-7.1-4.6-7.1-9 0-5.1 4.2-9.2 9.3-9.2 3.4 0 6.4 1.8 8 4.5l1.4-0.2c0.9-5.3 5.5-9.4 11-9.4 6.2 0 11.2 5 11.2 11.2zm-22.7 5.9q-0.5 1.5-1.4 2.7h5.8c-1.1-0.8-1.9-1.9-2.6-3.1zm16.9 19.2c0 0.5 0.5 1 1 1 0.6 0 1-0.5 1-1 0-0.6-0.4-1-1-1-0.5 0-1 0.4-1 1z"/></g><path class="a" d="m86.9 39.8h18.3v3.8h-18.3z"/><path fill-rule="evenodd" class="b" d="m106.5 10.9c0 3.2-2.5 5.7-5.6 5.7-3.2 0-5.7-2.5-5.7-5.7 0-3.1 2.5-5.6 5.7-5.6 3.1 0 5.6 2.5 5.6 5.6zm-7.1-3c0 0.5 0.4 0.9 0.9 0.9 0.5 0 0.9-0.4 0.9-0.9 0-0.5-0.4-0.9-0.9-0.9-0.5 0-0.9 0.4-0.9 0.9zm2.8 1.7c0 0.5 0.4 0.9 0.9 0.9 0.6 0 1-0.4 1-0.9 0-0.5-0.4-0.9-1-0.9-0.5 0-0.9 0.4-0.9 0.9zm-5 0.7c0 0.5 0.4 0.9 0.9 0.9 0.6 0 1-0.4 1-0.9 0-0.5-0.4-0.9-1-0.9-0.5 0-0.9 0.4-0.9 0.9zm4.7 2.5c0 0.5 0.4 0.9 0.9 0.9 0.5 0 0.9-0.4 0.9-0.9 0-0.5-0.4-0.9-0.9-0.9-0.5 0-0.9 0.4-0.9 0.9zm-3.4 0.6c0 0.5 0.4 0.9 0.9 0.9 0.5 0 0.9-0.4 0.9-0.9 0-0.5-0.4-0.9-0.9-0.9-0.5 0-0.9 0.4-0.9 0.9z"/><path fill-rule="evenodd" class="b" d="m85.2 13.9c0 2.5-2 4.6-4.6 4.6-2.5 0-4.5-2.1-4.5-4.6 0-2.5 2-4.6 4.5-4.6 2.6 0 4.6 2.1 4.6 4.6zm-5.7-2.5c0 0.4 0.3 0.8 0.7 0.8 0.4 0 0.7-0.4 0.7-0.8 0-0.4-0.3-0.7-0.7-0.7-0.4 0-0.7 0.3-0.7 0.7zm2.2 1.4c0 0.4 0.4 0.8 0.8 0.8 0.4 0 0.7-0.4 0.7-0.8 0-0.4-0.3-0.7-0.7-0.7-0.4 0-0.8 0.3-0.8 0.7zm-4 0.6c0 0.4 0.3 0.7 0.7 0.7 0.5 0 0.8-0.3 0.8-0.7 0-0.4-0.3-0.7-0.8-0.7-0.4 0-0.7 0.3-0.7 0.7zm3.8 2c0 0.4 0.3 0.8 0.7 0.8 0.4 0 0.8-0.4 0.8-0.8 0-0.4-0.4-0.7-0.8-0.7-0.4 0-0.7 0.3-0.7 0.7zm-2.8 0.5c0 0.4 0.4 0.7 0.8 0.7 0.4 0 0.7-0.3 0.7-0.7 0-0.4-0.3-0.8-0.7-0.8-0.4 0-0.8 0.4-0.8 0.8z"/><g clip-path="url(#cp2)"><path class="a" d="m91.4 43.6l3.8 61.5h1.7l3.2-61.5h-1.7l-2.4 46.3-2.9-46.3c0 0-1.7 0-1.7 0z"/></g><path class="a" d="m98.8 43.6l15.8 58.4v0.1l1.4-0.4-11.7-58.1h-1.5l7.5 37.1-10.1-37.1z"/><path class="a" d="m87.9 43.6l-11.6 57.4 1.4 0.4 0.1-0.1 15.6-57.7h-1.5l-9.8 36.3 7.3-36.3z"/><path class="a" d="m93.6 66.1h5.3v2.4h-5.3z"/><path class="a" d="m82.5 65.9h5.3v2.4h-5.3z"/><path class="a" d="m104.8 65.9h5.3v2.4h-5.3z"/><g clip-path="url(#cp3)"><path class="a" d="m121.1 18.7l-5.7 3.4h-4.4v8.6h4.4l5.7 3.4z"/></g><path  d="m8.3 72.1l2.5-16.3h5v22.9h-3.4v-16.4l-2.5 16.4h-3.4l-2.7-16.2v16.2h-3.1v-22.9h5z"/><path fill-rule="evenodd" d="m21.4 61.3q0-2.8 1.4-4.2 1.4-1.5 4-1.5 2.7 0 4.1 1.5 1.4 1.4 1.4 4.2v11.9q0 2.8-1.4 4.3-1.4 1.5-4.1 1.5-2.6 0-4-1.5-1.4-1.5-1.4-4.3zm3.6 12.1q0 1.3 0.5 1.8 0.5 0.5 1.3 0.5 0.9 0 1.4-0.5 0.5-0.5 0.5-1.8v-12.3q0-1.3-0.5-1.8-0.5-0.5-1.4-0.5-0.8 0-1.3 0.5-0.5 0.5-0.5 1.8z"/><path  d="m43.3 74.5l2.8-18.7h3.3l-3.6 22.9h-5.3l-3.5-22.9h3.6z"/><path  d="m54.3 55.8h3.6v22.9h-3.6z"/><path  d="m67.4 65.5h4.9v3.2h-4.9v6.7h6.2v3.3h-9.8v-22.9h9.8v3.3h-6.2z"/><path  d="m116.4 61.5q0-2.8 1.4-4.3 1.3-1.5 4-1.5 2.6 0 3.9 1.5 1.4 1.5 1.4 4.3v0.9h-3.5v-1.1q0-1.3-0.4-1.8-0.5-0.5-1.4-0.5-0.8 0-1.3 0.5-0.4 0.5-0.4 1.8 0 1.1 0.5 2 0.5 0.9 1.3 1.7 0.8 0.8 1.7 1.6 0.9 0.8 1.6 1.8 0.8 0.9 1.4 2.2 0.5 1.2 0.5 2.8 0 2.8-1.4 4.3-1.3 1.5-4 1.5-2.6 0-4-1.5-1.4-1.5-1.4-4.3v-1.6h3.5v1.8q0 1.3 0.5 1.8 0.5 0.4 1.3 0.4 0.9 0 1.4-0.4 0.5-0.5 0.5-1.8 0-1.2-0.5-2.1-0.6-0.9-1.4-1.7-0.7-0.8-1.6-1.5-0.9-0.9-1.7-1.8-0.8-0.9-1.3-2.2-0.6-1.2-0.6-2.8z"/><path  d="m136 65.6h4.9v3.3h-4.9v6.7h6.2v3.3h-9.8v-22.9h9.8v3.3h-6.2z"/><path  d="m151.3 65.6h5v3.3h-5v6.7h6.2v3.3h-9.8v-22.9h9.8v3.3h-6.2z"/><path  d="m167.7 69.8l-1.1 2.1v7h-3.6v-22.9h3.6v10l4.8-10h3.5l-5 10.2 5 12.7h-3.7z"/><path  d="m183.4 65.6h5v3.3h-5v6.7h6.2v3.3h-9.8v-22.9h9.8v3.3h-6.2z"/><path fill-rule="evenodd" d="m202.7 78.9q-0.1-0.2-0.2-0.4 0-0.2-0.1-0.5 0-0.3-0.1-0.8 0-0.4 0-1.1v-3.6q0-1.6-0.5-2.3-0.6-0.6-1.8-0.6h-1.3v9.3h-3.6v-22.9h5.5q2.8 0 4 1.3 1.3 1.3 1.3 4v1.8q0 3.5-2.4 4.6 1.4 0.6 1.9 1.8 0.5 1.3 0.5 3.1v3.5q0 0.9 0.1 1.5 0.1 0.6 0.3 1.3zm-3.9-19.6v7h1.4q1 0 1.6-0.5 0.6-0.5 0.6-1.9v-2.3q0-1.2-0.5-1.8-0.4-0.5-1.4-0.5z"/></svg>