<svg version="1.2" xmlns="http://www.w3.org/2000/svg" viewBox="0 0 115 223" width="115" height="223"><defs><clipPath clipPathUnits="userSpaceOnUse" id="cp1"><path d="m-0.36-0.15h97.36v99.15h-97.36z"/></clipPath><clipPath clipPathUnits="userSpaceOnUse" id="cp2"><path d="m52 92h19v131.35h-19z"/></clipPath><clipPath clipPathUnits="userSpaceOnUse" id="cp3"><path d="m93 39h22.14v34h-22.14z"/></clipPath></defs><style>.a{fill:#0097b2}.b{fill:#fff}</style><g clip-path="url(#cp1)"><path fill-rule="evenodd" class="a" d="m96.4 23.6c0 7.4-3.3 14-8.6 18.4h5.2v40.9h-60l-1.1 7.1-16.4 3.6-2.8 2.8-12.2 2.3-0.8-6.8 12.1-2.3 3.3 1.7 15-2.9 0.7-5.5h-6.3v-24.6h-3.8l-1.1 1.8-1.9 0.5-5.2-10.9h3.3l4.7 1.8v0.1h4v-2.2c-8.6-2.1-15-9.8-15-19.1 0-10.9 8.8-19.7 19.7-19.7 7.3 0 13.6 3.9 17 9.7l2.9-0.6c1.9-11.3 11.7-19.9 23.5-19.9 13.2 0 23.8 10.7 23.8 23.8zm-48.3 12.6c-0.7 2.1-1.7 4.1-3 5.8h12.3c-2.2-1.8-4-4.1-5.5-6.6zm36 40.7c0 1.2 0.9 2.1 2.1 2.1 1.2 0 2.2-0.9 2.2-2.1 0-1.2-1-2.2-2.2-2.2-1.2 0-2.1 1-2.1 2.2z"/></g><path class="a" d="m42.6 84.4h38.8v8.2h-38.8z"/><path fill-rule="evenodd" class="b" d="m84.3 23.1c0 6.6-5.4 12-12 12-6.7 0-12.1-5.4-12.1-12 0-6.7 5.4-12 12.1-12 6.6 0 12 5.3 12 12zm-15.1-6.5c0 1 0.8 1.9 1.9 1.9 1.1 0 2-0.9 2-1.9 0-1.1-0.9-2-2-2-1.1 0-1.9 0.9-1.9 2zm6 3.6c0 1.1 0.9 2 1.9 2 1.1 0 2-0.9 2-2 0-1.1-0.9-1.9-2-1.9-1 0-1.9 0.8-1.9 1.9zm-10.6 1.6c0 1 0.8 1.9 1.9 1.9 1.1 0 1.9-0.9 1.9-1.9 0-1.1-0.8-2-1.9-2-1.1 0-1.9 0.9-1.9 2zm9.9 5.3c0 1.1 0.9 1.9 1.9 1.9 1.1 0 2-0.8 2-1.9 0-1.1-0.9-2-2-2-1 0-1.9 0.9-1.9 2zm-7.2 1.2c0 1 0.8 1.9 1.9 1.9 1.1 0 2-0.9 2-1.9 0-1.1-0.9-2-2-2-1.1 0-1.9 0.9-1.9 2z"/><path fill-rule="evenodd" class="b" d="m39 29.4c0 5.4-4.3 9.7-9.7 9.7-5.4 0-9.8-4.3-9.8-9.7 0-5.4 4.4-9.7 9.8-9.7 5.4 0 9.7 4.3 9.7 9.7zm-12.2-5.3c0 0.9 0.7 1.6 1.6 1.6 0.8 0 1.5-0.7 1.5-1.6 0-0.9-0.7-1.6-1.5-1.6-0.9 0-1.6 0.7-1.6 1.6zm4.9 3c0 0.8 0.7 1.6 1.5 1.6 0.9 0 1.6-0.8 1.6-1.6 0-0.9-0.7-1.6-1.6-1.6-0.8 0-1.5 0.7-1.5 1.6zm-8.7 1.2c0 0.9 0.8 1.6 1.6 1.6 0.9 0 1.6-0.7 1.6-1.6 0-0.9-0.7-1.6-1.6-1.6-0.8 0-1.6 0.7-1.6 1.6zm8.1 4.3c0 0.9 0.7 1.6 1.6 1.6 0.8 0 1.5-0.7 1.5-1.6 0-0.8-0.7-1.6-1.5-1.6-0.9 0-1.6 0.8-1.6 1.6zm-5.9 1c0 0.8 0.8 1.6 1.6 1.6 0.9 0 1.6-0.8 1.6-1.6 0-0.9-0.7-1.6-1.6-1.6-0.8 0-1.6 0.7-1.6 1.6z"/><g clip-path="url(#cp2)"><path class="a" d="m52.2 92.6l8.1 130.6 3.6-0.1 6.8-130.5h-3.7l-5.1 98.3-6.1-98.3c0 0-3.6 0-3.6 0z"/></g><path class="a" d="m67.8 92.6l33.7 124v0.1 0.1l3-0.7v-0.1l-24.9-123.4h-3.1l15.8 78.7-21.3-78.7z"/><path class="a" d="m44.7 92.6l-24.5 121.9v0.1l2.9 0.7 0.1-0.1v-0.1l33.3-122.5h-3.2l-21 77.1 15.6-77.1c0 0-3.2 0-3.2 0z"/><path class="a" d="m56.9 140.3h11.2v5.2h-11.2z"/><path class="a" d="m33.3 139.9h11.2v5.2h-11.2z"/><path class="a" d="m80.7 139.9h11.1v5.2h-11.1z"/><g clip-path="url(#cp3)"><path class="a" d="m115.3 39.5l-12.1 7.3h-9.5v18.3h9.5l12.1 7.3z"/></g></svg>